<?xml version="1.0" standalone="no"?>
<!DOCTYPE svg PUBLIC "-//W3C//DTD SVG 20010904//EN"
 "http://www.w3.org/TR/2001/REC-SVG-20010904/DTD/svg10.dtd">
<svg version="1.0" xmlns="http://www.w3.org/2000/svg"
 width="142.000000pt" height="160.000000pt" viewBox="0 0 142.000000 160.000000"
 preserveAspectRatio="xMidYMid meet">

<g transform="translate(0.000000,160.000000) scale(0.100000,-0.100000)"
fill="#ffffff" stroke="none">
<path d="M396 1229 l-337 -333 158 -158 157 -157 12 29 c7 16 22 35 33 42 20
12 15 18 -91 125 l-113 113 258 258 257 257 257 -257 258 -258 -232 -232 -232
-233 35 -37 c19 -21 38 -38 42 -38 4 0 129 122 277 270 l270 270 -336 336
-336 336 -337 -333z"/>
<path d="M605 1010 l-120 -120 123 -123 122 -122 122 122 123 123 -120 120
c-66 66 -122 120 -125 120 -3 0 -59 -54 -125 -120z m172 -72 c18 -18 33 -39
33 -47 0 -20 -60 -81 -79 -81 -20 0 -81 60 -81 79 0 20 60 81 79 81 8 0 30
-14 48 -32z"/>
</g>
</svg>
